<svg width="32" height="32" viewBox="0 0 32 32" fill="none" xmlns="http://www.w3.org/2000/svg">
<path d="M22.0933 29.3333C22.4475 29.3353 22.7984 29.2668 23.1258 29.1317C23.4532 28.9967 23.7503 28.7978 24 28.5466L27.6133 24.9333C27.8617 24.6835 28.0011 24.3455 28.0011 23.9933C28.0011 23.641 27.8617 23.3031 27.6133 23.0533L22.28 17.7199C22.0302 17.4716 21.6922 17.3322 21.34 17.3322C20.9878 17.3322 20.6498 17.4716 20.4 17.7199L18.2667 19.8399C16.7897 19.4461 15.4218 18.7211 14.2667 17.7199C13.2682 16.563 12.5435 15.1957 12.1467 13.7199L14.2667 11.5866C14.515 11.3368 14.6544 10.9989 14.6544 10.6466C14.6544 10.2944 14.515 9.95643 14.2667 9.70661L8.93334 4.37328C8.68352 4.12494 8.34558 3.98555 7.99334 3.98555C7.64109 3.98555 7.30315 4.12494 7.05334 4.37328L3.45334 7.99994C3.20218 8.2496 3.00326 8.54678 2.8682 8.87414C2.73313 9.2015 2.66462 9.55249 2.66667 9.90661C2.78763 15.0297 4.83477 19.919 8.4 23.5999C12.081 27.1652 16.9703 29.2123 22.0933 29.3333ZM8 7.21328L11.4533 10.6666L9.73334 12.3866C9.57043 12.5392 9.44844 12.7303 9.37855 12.9423C9.30867 13.1542 9.29312 13.3804 9.33334 13.5999C9.8317 15.8271 10.8868 17.8915 12.4 19.5999C14.1071 21.1151 16.172 22.1705 18.4 22.6666C18.6162 22.7118 18.8403 22.7026 19.0521 22.6397C19.2639 22.5769 19.4567 22.4624 19.6133 22.3066L21.3333 20.5466L24.7867 23.9999L22.12 26.6666C17.6983 26.5528 13.4793 24.7881 10.2933 21.7199C7.21722 18.5326 5.44748 14.3081 5.33334 9.87994L8 7.21328ZM26.6667 14.6666H29.3333C29.3679 13.0813 29.0811 11.5054 28.4903 10.0338C27.8995 8.56228 27.0169 7.2256 25.8956 6.10434C24.7743 4.98307 23.4377 4.10043 21.9661 3.50961C20.4946 2.9188 18.9187 2.63204 17.3333 2.66661V5.33328C18.5705 5.29048 19.8033 5.50262 20.9551 5.95652C22.1068 6.41042 23.1529 7.09637 24.0282 7.97173C24.9036 8.84709 25.5895 9.89315 26.0434 11.0449C26.4973 12.1966 26.7095 13.4294 26.6667 14.6666Z" fill="#03B29E"/>
<path d="M17.3334 10.6667C20.1334 10.6667 21.3334 11.8667 21.3334 14.6667H24C24 10.3733 21.6267 8 17.3334 8V10.6667Z" fill="#03B29E"/>
</svg>
