<svg width="48" height="48" viewBox="0 0 48 48" fill="none" xmlns="http://www.w3.org/2000/svg"><path d="M24 4C18.7166 4.06738 13.6686 6.19615 9.93237 9.93237C6.19615 13.6686 4.06738 18.7166 4 24C4.0247 27.0778 4.75944 30.1084 6.14702 32.8558C7.53461 35.6033 9.53758 37.9933 12 39.84V40H12.2C15.5864 42.595 19.7337 44.0013 24 44.0013C28.2663 44.0013 32.4136 42.595 35.8 40H36V39.84C38.4624 37.9933 40.4654 35.6033 41.853 32.8558C43.2406 30.1084 43.9753 27.0778 44 24C43.9326 18.7166 41.8039 13.6686 38.0676 9.93237C34.3314 6.19615 29.2834 4.06738 24 4ZM16.14 37.86C16.432 36.5229 17.1723 35.3258 18.2382 34.4673C19.304 33.6087 20.6314 33.1404 22 33.14H26C27.3686 33.1404 28.696 33.6087 29.7618 34.4673C30.8277 35.3258 31.568 36.5229 31.86 37.86C29.4777 39.2616 26.764 40.0007 24 40.0007C21.236 40.0007 18.5223 39.2616 16.14 37.86ZM35.22 35.28C34.4593 33.4619 33.1782 31.9091 31.5378 30.8167C29.8975 29.7243 27.9708 29.141 26 29.14H22C20.0292 29.141 18.1025 29.7243 16.4622 30.8167C14.8218 31.9091 13.5407 33.4619 12.78 35.28C11.2813 33.806 10.0878 32.0511 9.26763 30.1156C8.44745 28.1801 8.0167 26.102 8 24C8.05188 19.7727 9.75424 15.7331 12.7437 12.7437C15.7331 9.75424 19.7727 8.05188 24 8C28.2273 8.05188 32.2669 9.75424 35.2563 12.7437C38.2458 15.7331 39.9481 19.7727 40 24C39.9833 26.102 39.5525 28.1801 38.7324 30.1156C37.9122 32.0511 36.7187 33.806 35.22 35.28Z" fill="#03B29E"/><path d="M23.9999 11.9999C22.9426 11.9753 21.8913 12.1654 20.9096 12.5587C19.9278 12.952 19.0361 13.5404 18.2882 14.2882C17.5404 15.0361 16.952 15.9278 16.5587 16.9096C16.1654 17.8913 15.9753 18.9426 15.9999 19.9999C15.9753 21.0572 16.1654 22.1086 16.5587 23.0903C16.952 24.072 17.5404 24.9638 18.2882 25.7116C19.0361 26.4595 19.9278 27.0478 20.9096 27.4411C21.8913 27.8345 22.9426 28.0246 23.9999 27.9999C25.0572 28.0246 26.1086 27.8345 27.0903 27.4411C28.072 27.0478 28.9638 26.4595 29.7116 25.7116C30.4595 24.9638 31.0478 24.072 31.4411 23.0903C31.8345 22.1086 32.0246 21.0572 31.9999 19.9999C32.0246 18.9426 31.8345 17.8913 31.4411 16.9096C31.0478 15.9278 30.4595 15.0361 29.7116 14.2882C28.9638 13.5404 28.072 12.952 27.0903 12.5587C26.1086 12.1654 25.0572 11.9753 23.9999 11.9999ZM23.9999 23.9999C23.4678 24.0256 22.9362 23.9398 22.4393 23.7479C21.9423 23.556 21.491 23.2622 21.1143 22.8855C20.7376 22.5088 20.4439 22.0575 20.252 21.5606C20.0601 21.0636 19.9742 20.532 19.9999 19.9999C19.9742 19.4678 20.0601 18.9362 20.252 18.4393C20.4439 17.9423 20.7376 17.491 21.1143 17.1143C21.491 16.7376 21.9423 16.4439 22.4393 16.252C22.9362 16.0601 23.4678 15.9742 23.9999 15.9999C24.532 15.9742 25.0636 16.0601 25.5606 16.252C26.0575 16.4439 26.5088 16.7376 26.8855 17.1143C27.2622 17.491 27.556 17.9423 27.7479 18.4393C27.9398 18.9362 28.0256 19.4678 27.9999 19.9999C28.0256 20.532 27.9398 21.0636 27.7479 21.5606C27.556 22.0575 27.2622 22.5088 26.8855 22.8855C26.5088 23.2622 26.0575 23.556 25.5606 23.7479C25.0636 23.9398 24.532 24.0256 23.9999 23.9999Z" fill="#03B29E"/>
</svg>
