<svg width="48" height="48" viewBox="0 0 48 48" fill="none" xmlns="http://www.w3.org/2000/svg">
<path d="M42.8759 10.178C42.5792 10.0222 42.2482 9.94333 41.9131 9.94857C41.5781 9.95381 41.2496 10.043 40.958 10.208C39.59 10.986 38.248 11.362 36.852 11.362C32.782 11.362 28.948 8.10396 25.408 4.58196C24.658 3.83596 23.2819 3.83596 22.5319 4.58196C19.184 7.91796 15.196 11.326 11.02 11.326C9.63995 11.326 8.31795 10.958 6.98395 10.204C6.38795 9.87196 5.66795 9.86196 5.06395 10.18C4.45995 10.498 4.06195 11.102 4.00795 11.782C3.98595 12.04 2.11995 37.526 23.374 43.864C23.5595 43.9198 23.7522 43.9481 23.9459 43.948H24C24.194 43.948 24.3839 43.92 24.57 43.866C45.8839 37.526 43.9599 12.034 43.938 11.778C43.9094 11.4436 43.7971 11.1218 43.6115 10.8422C43.426 10.5626 43.173 10.3341 42.8759 10.178ZM23.972 39.862C10.014 35.352 8.10395 21.038 7.94395 14.908C8.95395 15.188 9.98195 15.326 11.018 15.326C16.002 15.326 20.3179 12.192 23.9699 8.75996C27.7559 12.336 31.936 15.362 36.854 15.362C37.914 15.362 38.968 15.214 40.004 14.922C39.856 21.052 37.962 35.356 23.972 39.862Z" fill="#03B29E"/>
</svg>
