<svg width="48" height="48" viewBox="0 0 48 48" fill="none" xmlns="http://www.w3.org/2000/svg">
<path d="M40 6H8C6.93913 6 5.92172 6.42143 5.17157 7.17157C4.42143 7.92172 4 8.93913 4 10V18C4 19.0609 4.42143 20.0783 5.17157 20.8284C5.92172 21.5786 6.93913 22 8 22H40C41.0609 22 42.0783 21.5786 42.8284 20.8284C43.5786 20.0783 44 19.0609 44 18V10C44 8.93913 43.5786 7.92172 42.8284 7.17157C42.0783 6.42143 41.0609 6 40 6ZM8 18V10H40V18H8ZM40 26H8C6.93913 26 5.92172 26.4214 5.17157 27.1716C4.42143 27.9217 4 28.9391 4 30V38C4 39.0609 4.42143 40.0783 5.17157 40.8284C5.92172 41.5786 6.93913 42 8 42H40C41.0609 42 42.0783 41.5786 42.8284 40.8284C43.5786 40.0783 44 39.0609 44 38V30C44 28.9391 43.5786 27.9217 42.8284 27.1716C42.0783 26.4214 41.0609 26 40 26ZM8 38V30H40V38H8Z" fill="#03B29E"/>
<path d="M34 12H38V16H34V12ZM28 12H32V16H28V12ZM34 32H38V36H34V32ZM28 32H32V36H28V32Z" fill="#03B29E"/>
</svg>
