<svg width="32" height="32" viewBox="0 0 32 32" fill="none" xmlns="http://www.w3.org/2000/svg">
<path d="M16.0001 18.6667C18.9414 18.6667 21.3334 16.2747 21.3334 13.3333C21.3334 10.392 18.9414 8 16.0001 8C13.0587 8 10.6667 10.392 10.6667 13.3333C10.6667 16.2747 13.0587 18.6667 16.0001 18.6667ZM16.0001 10.6667C17.4707 10.6667 18.6667 11.8627 18.6667 13.3333C18.6667 14.804 17.4707 16 16.0001 16C14.5294 16 13.3334 14.804 13.3334 13.3333C13.3334 11.8627 14.5294 10.6667 16.0001 10.6667Z" fill="#03B29E"/>
<path d="M15.2267 29.0853C15.4524 29.2464 15.7227 29.3331 16 29.3331C16.2773 29.3331 16.5477 29.2464 16.7734 29.0853C17.1787 28.7986 26.7054 21.92 26.6667 13.3333C26.6667 7.45196 21.8814 2.66663 16 2.66663C10.1187 2.66663 5.33337 7.45196 5.33337 13.3266C5.2947 21.92 14.8214 28.7986 15.2267 29.0853ZM16 5.33329C20.412 5.33329 24 8.92129 24 13.34C24.028 19.2573 18.1494 24.5706 16 26.3133C13.852 24.5693 7.97204 19.2546 8.00004 13.3333C8.00004 8.92129 11.588 5.33329 16 5.33329Z" fill="#03B29E"/>
</svg>
