<svg width="32" height="32" viewBox="0 0 32 32" fill="none" xmlns="http://www.w3.org/2000/svg">
<path d="M26.6667 5.33337H5.33341C3.86275 5.33337 2.66675 6.52937 2.66675 8.00004V24C2.66675 25.4707 3.86275 26.6667 5.33341 26.6667H26.6667C28.1374 26.6667 29.3334 25.4707 29.3334 24V8.00004C29.3334 6.52937 28.1374 5.33337 26.6667 5.33337ZM26.6667 8.00004V8.68137L16.0001 16.9787L5.33341 8.68271V8.00004H26.6667ZM5.33341 24V12.0587L15.1814 19.7187C15.4149 19.9021 15.7032 20.0018 16.0001 20.0018C16.297 20.0018 16.5853 19.9021 16.8187 19.7187L26.6667 12.0587L26.6694 24H5.33341Z" fill="#03B29E"/>
</svg>
