<?xml version="1.0" encoding="utf-8"?>
<!-- Generator: Adobe Illustrator 27.1.1, SVG Export Plug-In . SVG Version: 6.00 Build 0)  -->
<svg version="1.1" id="Layer_1" xmlns="http://www.w3.org/2000/svg" xmlns:xlink="http://www.w3.org/1999/xlink" x="0px" y="0px"
	 viewBox="0 0 585 75.9" style="enable-background:new 0 0 585 75.9;" xml:space="preserve">
<style type="text/css">
	.st0{fill:#30BBA3;}
	.st1{fill:#FFFFFF;}
</style>
<g>
	<path class="st0" d="M48.5,16.8c2.7,1.2,4.8,2.8,6.7,4.8c1.8,1.9,3.2,4.3,4.3,7.2c0.7,2.1,1.2,4.3,1.4,6.5h18.4V0H42.2v15.2
		C44.4,15.4,46.5,16,48.5,16.8L48.5,16.8z"/>
	<polygon class="st1" points="109.8,1.9 90.8,1.9 90.8,74.1 109.2,74.1 109.2,36.5 124.6,74.1 137.8,74.1 153.2,36.5 153.2,74.1 
		171.6,74.1 171.6,1.9 152.6,1.9 131.2,54.2 130.9,53.5 	"/>
	<polygon class="st1" points="184.8,1.9 184.8,74.1 203.2,74.1 203.2,28.4 230.9,74.1 249.4,74.1 249.4,1.9 231.1,1.9 231.1,46.8 
		203.3,1.9 	"/>
	<rect x="262.8" y="1.9" class="st1" width="18.4" height="72.1"/>
	<path class="st1" d="M340.1,59.9c-2.1,0.6-4.5,0.9-7.2,0.9c-3.4,0-6.3-0.6-8.9-1.8c-2.7-1.1-5.1-2.7-6.9-4.9
		c-2-2.1-3.4-4.5-4.4-7.2c-1.1-2.6-1.6-5.6-1.6-9c0-3.3,0.5-6.4,1.6-9.1c1-2.7,2.5-5.1,4.4-7.3c1.8-2,4.1-3.6,6.8-4.8
		c2.7-1.2,5.7-1.8,8.8-1.8c5.2,0,9.5,1.2,13,3.6c3.3,2.3,6.1,5.5,8.4,9.4l12-10.1c-4.3-5.9-9.2-10.3-14.5-13.4
		c-5.5-3-12-4.5-19.4-4.5c-5.4,0-10.7,0.9-15.6,2.8c-4.8,1.9-9,4.5-12.5,7.8c-3.6,3.4-6.3,7.3-8.3,12c-2.1,4.7-3.1,9.7-3.1,15.3
		c0,5.7,1,10.7,3.1,15.3c2,4.8,4.8,8.7,8.3,12c3.5,3.3,7.7,5.9,12.5,7.8c4.9,1.9,10.2,2.8,15.6,2.8c7.6,0,14.2-1.6,19.8-4.7
		c5.4-3.2,10.1-7.5,14.2-13.1l-11.8-10.4c-1.2,2-2.5,3.8-3.8,5.3l0,0c-1.5,1.7-3.2,3.2-4.8,4.3C344,58.4,342.1,59.3,340.1,59.9z"/>
	<path class="st1" d="M505.5,42c3.3-1.9,5.6-4.2,7.2-7.2l0,0c1.6-2.9,2.4-6.8,2.4-11.6c0-3.5-0.6-6.8-1.7-9.6
		c-1.2-2.7-2.7-4.8-4.7-6.6c-2-1.6-4.3-2.9-7-3.8c-2.9-0.8-5.9-1.3-8.8-1.3h-40.5v72.1h18.4V47.4h17.9l0.1,0.2l11.2,26.5h19.1
		l-13.8-32L505.5,42z M495,28.9L495,28.9c-1.3,1.5-3.4,2.6-6.6,3.1l-17.7,0V17h19.6c1.9,0,3.5,0.7,4.8,1.9c1.1,1.3,1.7,2.9,1.7,4.7
		C496.8,25.6,496.2,27.3,495,28.9z"/>
	<polygon class="st1" points="585,17 585,1.9 528.1,1.9 528.1,74.1 585,74.1 585,59.1 546.4,59.1 546.4,44.8 585,44.8 585,29.7 
		546.4,29.7 546.4,17 	"/>
	<path class="st1" d="M48.5,59.1c-2.6,1.2-5.6,1.8-8.8,1.8c-3.3,0-6.2-0.6-8.7-1.8c-2.7-1.1-4.9-2.6-6.8-4.7c-2-2.2-3.4-4.6-4.3-7.3
		c-1.1-2.6-1.6-5.7-1.6-9.2c0-3.4,0.5-6.4,1.6-9.1c0.9-2.6,2.3-5.1,4.3-7.2c1.8-2,4.1-3.6,6.8-4.8c1.9-0.8,3.9-1.3,6.2-1.5V0.1
		c-4.6,0.2-9.1,1.2-13.2,2.7c-4.8,1.9-9,4.5-12.5,7.8c-3.6,3.4-6.3,7.3-8.3,12C1,27.3,0,32.4,0,37.9c0,5.7,1,10.7,3.1,15.3
		c2,4.8,4.8,8.7,8.3,12c3.4,3.3,7.6,6,12.5,7.9c4.9,1.9,10.2,2.8,15.8,2.8c5.5,0,10.8-0.9,15.9-2.8c4.8-1.9,8.9-4.5,12.6-7.9
		c3.5-3.5,6.3-7.5,8.2-12c1.6-3.9,2.6-8.2,2.8-12.8H60.9c-0.2,2.3-0.7,4.5-1.4,6.7l0,0c-1.1,3-2.6,5.3-4.3,7.3
		C53.3,56.4,51.1,58,48.5,59.1z"/>
	<path class="st1" d="M395.5,1.9l-24.4,72.1h18.3l5.5-16.1h24.7l5.5,16.1h18.3L419,1.9H395.5z M400.1,42.6l0.1-0.4l7-20.5l7.1,20.9
		H400.1z"/>
</g>
</svg>
